<?xml version="1.0" encoding="utf-8"?>
<!-- Generator: Adobe Illustrator 24.1.3, SVG Export Plug-In . SVG Version: 6.00 Build 0)  -->
<svg version="1.1" id="Layer_1" xmlns="http://www.w3.org/2000/svg" xmlns:xlink="http://www.w3.org/1999/xlink" x="0px" y="0px"
	 viewBox="0 0 16 16" style="enable-background:new 0 0 16 16;" xml:space="preserve">
<style type="text/css">
	.st0{fill:#FFFFFF;}
	.st1{fill:#EC1C2C;}
	.st2{fill:#339A47;}
	.st3{fill:#999799;}
	.st4{fill:#2E3191;}
</style>
<g>
	<g id="XMLID_1_">
		<g>
			<polygon class="st0" points="16,10 16,16 10,16 10,14 11,14 12,14 12,13 12,12 13,12 14,12 14,11 14,10 			"/>
			<polygon class="st1" points="16,8 16,10 14,10 14,9 15,9 15,8 			"/>
			<polygon class="st1" points="16,6 16,8 15,8 15,7 14,7 14,6 15,6 			"/>
			<polygon class="st0" points="16,0 16,6 15,6 14,6 14,5 14,4 13,4 12,4 12,3 12,2 11,2 10,2 10,0 			"/>
			<rect x="14" y="8" width="1" height="1"/>
			<rect x="14" y="7" width="1" height="1"/>
			<polygon class="st2" points="14,11 14,12 13,12 12,12 12,11 13,11 13,10 14,10 			"/>
			<rect x="13" y="9" class="st2" width="1" height="1"/>
			<rect x="13" y="8" class="st2" width="1" height="1"/>
			<rect x="13" y="7" class="st2" width="1" height="1"/>
			<rect x="13" y="6" class="st3" width="1" height="1"/>
			<polygon class="st2" points="14,5 14,6 13,6 13,5 12,5 12,4 13,4 14,4 			"/>
			<rect x="12" y="10" width="1" height="1"/>
			<rect x="12" y="9" class="st1" width="1" height="1"/>
			<rect x="12" y="8" width="1" height="1"/>
			<rect x="12" y="7" width="1" height="1"/>
			<rect x="12" y="6" class="st1" width="1" height="1"/>
			<rect x="12" y="5" width="1" height="1"/>
			<polygon class="st4" points="12,13 12,14 11,14 10,14 10,13 11,13 11,12 12,12 			"/>
			<rect x="11" y="11" class="st4" width="1" height="1"/>
			<rect x="11" y="10" class="st4" width="1" height="1"/>
			<rect x="11" y="9" class="st4" width="1" height="1"/>
			<rect x="11" y="8" class="st4" width="1" height="1"/>
			<rect x="11" y="7" class="st4" width="1" height="1"/>
			<rect x="11" y="6" class="st4" width="1" height="1"/>
			<rect x="11" y="5" class="st4" width="1" height="1"/>
			<rect x="11" y="4" class="st4" width="1" height="1"/>
			<polygon class="st4" points="12,3 12,4 11,4 11,3 10,3 10,2 11,2 12,2 			"/>
			<rect x="10" y="12" width="1" height="1"/>
			<rect x="10" y="11" class="st2" width="1" height="1"/>
			<rect x="10" y="10" width="1" height="1"/>
			<rect x="10" y="9" class="st1" width="1" height="1"/>
			<rect x="10" y="8" width="1" height="1"/>
			<rect x="10" y="7" width="1" height="1"/>
			<rect x="10" y="6" class="st1" width="1" height="1"/>
			<rect x="10" y="5" width="1" height="1"/>
			<rect x="10" y="4" class="st2" width="1" height="1"/>
			<rect x="10" y="3" width="1" height="1"/>
			<polygon class="st3" points="10,14 10,16 9,16 9,15 9,14 			"/>
			<rect x="9" y="13" class="st3" width="1" height="1"/>
			<rect x="9" y="12" class="st3" width="1" height="1"/>
			<rect x="9" y="11" class="st3" width="1" height="1"/>
			<rect x="9" y="10" class="st3" width="1" height="1"/>
			<rect x="9" y="9" class="st3" width="1" height="1"/>
			<rect x="9" y="8" class="st3" width="1" height="1"/>
			<rect x="9" y="7" class="st3" width="1" height="1"/>
			<rect x="9" y="6" class="st3" width="1" height="1"/>
			<rect x="9" y="5" class="st3" width="1" height="1"/>
			<rect x="9" y="4" class="st3" width="1" height="1"/>
			<rect x="9" y="3" class="st3" width="1" height="1"/>
			<rect x="9" y="2" class="st3" width="1" height="1"/>
			<polygon class="st3" points="10,0 10,2 9,2 9,1 9,0 			"/>
			<rect x="7" y="14" width="2" height="1"/>
			<rect x="7" y="13" class="st4" width="2" height="1"/>
			<rect x="7" y="12" width="2" height="1"/>
			<rect x="7" y="11" class="st2" width="2" height="1"/>
			<rect x="7" y="10" width="2" height="1"/>
			<rect x="7" y="9" class="st1" width="2" height="1"/>
			<rect x="7" y="8" width="2" height="1"/>
			<rect x="7" y="7" width="2" height="1"/>
			<rect x="7" y="6" class="st1" width="2" height="1"/>
			<rect x="7" y="5" width="2" height="1"/>
			<rect x="7" y="4" class="st2" width="2" height="1"/>
			<rect x="7" y="3" width="2" height="1"/>
			<rect x="7" y="2" class="st4" width="2" height="1"/>
			<rect x="7" y="1" width="2" height="1"/>
			<polygon class="st3" points="9,15 9,16 6,16 6,14 7,14 7,15 			"/>
			<polygon class="st3" points="9,0 9,1 7,1 7,2 6,2 6,0 			"/>
			<rect x="6" y="13" class="st3" width="1" height="1"/>
			<rect x="6" y="12" class="st3" width="1" height="1"/>
			<rect x="6" y="11" class="st3" width="1" height="1"/>
			<rect x="6" y="10" class="st3" width="1" height="1"/>
			<rect x="6" y="9" class="st3" width="1" height="1"/>
			<rect x="6" y="8" class="st3" width="1" height="1"/>
			<rect x="6" y="7" class="st3" width="1" height="1"/>
			<rect x="6" y="6" class="st3" width="1" height="1"/>
			<rect x="6" y="5" class="st3" width="1" height="1"/>
			<rect x="6" y="4" class="st3" width="1" height="1"/>
			<rect x="6" y="3" class="st3" width="1" height="1"/>
			<rect x="6" y="2" class="st3" width="1" height="1"/>
			<polygon class="st0" points="6,14 6,16 0,16 0,10 2,10 2,11 2,12 3,12 4,12 4,13 4,14 5,14 			"/>
			<polygon class="st4" points="6,13 6,14 5,14 4,14 4,13 4,12 5,12 5,13 			"/>
			<rect x="5" y="12" width="1" height="1"/>
			<rect x="5" y="11" class="st2" width="1" height="1"/>
			<rect x="5" y="10" width="1" height="1"/>
			<rect x="5" y="9" class="st1" width="1" height="1"/>
			<rect x="5" y="8" width="1" height="1"/>
			<rect x="5" y="7" width="1" height="1"/>
			<rect x="5" y="6" class="st1" width="1" height="1"/>
			<rect x="5" y="5" width="1" height="1"/>
			<rect x="5" y="4" class="st2" width="1" height="1"/>
			<rect x="5" y="3" width="1" height="1"/>
			<polygon class="st4" points="6,2 6,3 5,3 5,4 4,4 4,3 4,2 5,2 			"/>
			<polygon class="st0" points="6,0 6,2 5,2 4,2 4,3 4,4 3,4 2,4 2,5 2,6 0,6 0,0 			"/>
			<rect x="4" y="11" class="st4" width="1" height="1"/>
			<rect x="4" y="10" class="st4" width="1" height="1"/>
			<rect x="4" y="9" class="st4" width="1" height="1"/>
			<rect x="4" y="8" class="st4" width="1" height="1"/>
			<rect x="4" y="7" class="st4" width="1" height="1"/>
			<rect x="4" y="6" class="st4" width="1" height="1"/>
			<rect x="4" y="5" class="st4" width="1" height="1"/>
			<rect x="4" y="4" class="st4" width="1" height="1"/>
			<polygon class="st2" points="4,11 4,12 3,12 2,12 2,11 2,10 3,10 3,11 			"/>
			<rect x="3" y="10" width="1" height="1"/>
			<rect x="3" y="9" class="st1" width="1" height="1"/>
			<rect x="3" y="8" width="1" height="1"/>
			<rect x="3" y="7" width="1" height="1"/>
			<rect x="3" y="6" class="st1" width="1" height="1"/>
			<rect x="3" y="5" width="1" height="1"/>
			<polygon class="st2" points="4,4 4,5 3,5 3,6 2,6 2,5 2,4 3,4 			"/>
			<rect x="2" y="9" class="st2" width="1" height="1"/>
			<rect x="2" y="8" class="st2" width="1" height="1"/>
			<rect x="2" y="7" class="st2" width="1" height="1"/>
			<rect x="2" y="6" class="st2" width="1" height="1"/>
			<polygon class="st1" points="2,9 2,10 0,10 0,8 1,8 1,9 			"/>
			<rect x="1" y="8" width="1" height="1"/>
			<rect x="1" y="7" width="1" height="1"/>
			<polygon class="st1" points="2,6 2,7 1,7 1,8 0,8 0,6 			"/>
		</g>
		<g>
		</g>
	</g>
</g>
</svg>
