<?xml version="1.0" encoding="utf-8"?>
<!-- Generator: Adobe Illustrator 24.0.2, SVG Export Plug-In . SVG Version: 6.00 Build 0)  -->
<svg version="1.1" id="Layer_1" xmlns="http://www.w3.org/2000/svg" xmlns:xlink="http://www.w3.org/1999/xlink" x="0px" y="0px"
	 viewBox="0 0 16 16" style="enable-background:new 0 0 16 16;" xml:space="preserve">
<style type="text/css">
	.st0{fill:#EC1C2C;}
	.st1{fill:#339A47;}
	.st2{fill:#2E3191;}
	.st3{fill:#999799;}
</style>
<g>
	<g>
		<path class="st0" d="M15,7v2H1V7H15 M16,6H0v4h16V6L16,6z"/>
	</g>
	<g>
		<path class="st1" d="M14,5v6H2V5H14 M15,4h-1H2H1v1v6v1h1h12h1v-1V5V4L15,4z"/>
	</g>
	<g>
		<path class="st2" d="M12,3v10H4V3H12 M13,2h-1H4H3v1v10v1h1h8h1v-1V3V2L13,2z"/>
	</g>
	<g>
		<path class="st3" d="M10,1v14H6V1H10 M11,0H5v16h6V0L11,0z"/>
	</g>
</g>
</svg>
